<svg width="32" height="32" viewBox="0 0 32 32" fill="none" xmlns="http://www.w3.org/2000/svg">
  <!-- Background -->
  <rect width="32" height="32" rx="6" fill="#09090b"/>
  
  <!-- Subtle Gradient Glow -->
  <circle cx="16" cy="16" r="14" fill="url(#paint0_radial)" fill-opacity="0.2"/>
  
  <!-- Logo Icon (scaled to fit 32x32) -->
  <g transform="translate(4, 4)">
    <path d="M4 7V5a2 2 0 0 1 2-2h2" stroke="#fafafa" stroke-width="2" stroke-linecap="round"/>
    <path d="M16 3h2a2 2 0 0 1 2 2v2" stroke="#fafafa" stroke-width="2" stroke-linecap="round"/>
    <path d="M20 17v2a2 2 0 0 1-2 2h-2" stroke="#fafafa" stroke-width="2" stroke-linecap="round"/>
    <path d="M8 21H6a2 2 0 0 1-2-2v-2" stroke="#fafafa" stroke-width="2" stroke-linecap="round"/>
    <path d="M9 12h6" stroke="#fafafa" stroke-width="2" stroke-linecap="round"/>
  </g>

  <!-- Definitions -->
  <defs>
    <radialGradient id="paint0_radial" cx="0" cy="0" r="1" gradientUnits="userSpaceOnUse" gradientTransform="translate(16 16) rotate(90) scale(14)">
      <stop stop-color="#10b981"/>
      <stop offset="1" stop-color="#10b981" stop-opacity="0"/>
    </radialGradient>
  </defs>
</svg>

